<svg id="Layer_1" data-name="Layer 1" xmlns="http://www.w3.org/2000/svg" viewBox="0 0 417.26 63.82"><defs><style>.cls-1{fill:#fff27b;stroke:#323232;stroke-miterlimit:10;stroke-width:0.5px;}</style></defs><path class="cls-1" d="M162.05,20H.84l-.55.74L3,26.11h9.61a4.25,4.25,0,0,1,1,2.69c0,3.17-3.79,4.73-9.37,6l-.43.74C7.6,46.34,13.34,51.93,21.07,51.93a11.47,11.47,0,0,0,6.29-1.64l-.15,9.06,6.21,1.8.54-.39-.15-34.65H44l-.15,33.2,6.29,1.84.54-.39-.15-34.65h30v5.66c-2.66-.07-5.75-.15-9-.15-10.7,0-12.81,5.51-12.81,9.68,0,7,6,15.4,12.5,20.12l.59-.12,2.81-6.17c-7-3.83-10.2-6.17-10.2-10.19a5.81,5.81,0,0,1,2.46-4.81c1.72-1.29,4.46-2,10.47-2h3.17l-.12,21.21,6.21,1.8.55-.39L87,26.11h10.2L97,59.31l6.29,1.84.55-.39-.16-34.65h15.7a4.2,4.2,0,0,1,1,2.69c0,3.17-3.79,4.73-9.38,6l-.42.74c3.86,10.82,9.6,16.41,17.34,16.41a11.49,11.49,0,0,0,6.29-1.64L134,59.35l6.21,1.8.55-.39-.16-34.65h10.2l-.16,33.2L157,61.15l.55-.39-.16-34.65h30v5.66c-2.65-.07-5.74-.15-9-.15-10.7,0-12.81,5.51-12.81,9.68,0,7,6,15.4,12.5,20.12l.58-.12,2.81-6.17c-6.95-3.83-10.19-6.17-10.19-10.19a5.79,5.79,0,0,1,2.46-4.81c1.72-1.29,4.45-2,10.47-2h3.16l-.11,21.21,6.21,1.8.54-.39-.15-34.65h6.79l.55-.74L198.49,20ZM27.44,38.34a5.51,5.51,0,0,1-2,4.64,11.06,11.06,0,0,1-6.95,2.39c-4.26,0-6.84-1.76-7.66-5,5.51-1.29,8.79-3.56,8.79-7.35,0-2.46-1-4.68-2.23-7H27.44Zm106.84,0a5.52,5.52,0,0,1-2,4.64,11.06,11.06,0,0,1-7,2.39c-4.26,0-6.83-1.76-7.65-5,5.5-1.29,8.78-3.56,8.78-7.35a14.88,14.88,0,0,0-2.22-7h10.08Z"/><path class="cls-1" d="M242.57,20C236.22,6.43,233.38.25,225.49.25a30.34,30.34,0,0,0-8.09,1.09l3,7.35h.16a26.92,26.92,0,0,1,7.57-1.1c5.67,0,7.47,4.69,10.3,12.43H214l-.54.74,2.65,5.35H237.6v5.74a29.13,29.13,0,0,0-8.87-1.52c-6.09,0-10.66,3.67-10.66,9.37,0,2.82,1.48,5.63,3.51,8,2.77,2.85,5.43,4.88,9.57,4.88a10.23,10.23,0,0,0,6.41-2l.08,0-.2,8.79,6.05,1.8.55-.39L244,45.21c3.17-3.67,6.61-6.21,9.42-6.21,1.36,0,2,.66,2,2.11,0,3-2.5,7.34-5.86,11.52l5.82,4.5h.55c3-3.91,4.88-8.44,4.88-12.39a11.6,11.6,0,0,0-3.28-8.08,9.2,9.2,0,0,0-7.19-3.36A11,11,0,0,0,244,35.56l-.11-.08V26.11h20l.55-.74L261.82,20Zm-4.9,22c-3,3.12-6.13,4.61-9.14,4.61-2.61,0-4.18-1-4.18-3.13,0-3.82,3-7.15,9.54-7.15a18.45,18.45,0,0,1,3.78.36Z"/><path class="cls-1" d="M319.28,20h-42l-.54.74,2.65,5.35h8.71a27,27,0,0,1,.51,5.43,19.63,19.63,0,0,1-.58,5.16,31.08,31.08,0,0,0-3.29-.24,3.82,3.82,0,0,0-4,4.1c0,1.57.9,3.91,2.89,6.92,3.83,5.82,9.45,11.13,16,16.09h.58l2.93-6.52c-6-2.85-10.7-5.82-13.79-9A20.44,20.44,0,0,0,293.81,44,22.11,22.11,0,0,0,303,46.11a47.31,47.31,0,0,0,5.23-.27L308,59.35l6.21,1.8.54-.39-.15-34.65h10.19l-.15,33.2,6.29,1.84.54-.39-.15-34.65h6.79l.55-.74L336,20ZM308.14,38.53a28.93,28.93,0,0,1-7,.74,34.55,34.55,0,0,1-6.29-.62,30.76,30.76,0,0,0,.2-4,45.26,45.26,0,0,0-.82-8.52h13.9Z"/><path class="cls-1" d="M378.1,20H360.17l-.54.74,2.65,5.35h4.61V39c0,3.28-1.91,4.88-4.49,6.13a13.61,13.61,0,0,1-5.78,1.45c-2.7,0-4.18-1.33-4.18-2.85,0-1.76,1.29-5.32,10.16-6.45l.31-.43-3.56-5.74A82,82,0,0,1,351,32.36c-3.4,0-5.51-1.33-5.51-3.87a5,5,0,0,1,5.15-4.84c2.78,0,4.3,2.15,5.67,4.92l2.26-1.41a39.89,39.89,0,0,0-4-7.69,8.51,8.51,0,0,0-6.29-2.7c-4.57,0-8.79,3.09-8.79,8.36,0,4.42,3.87,7.89,7.93,11.29a6.92,6.92,0,0,0-1,3.44c0,3.2,1.64,6.13,4.45,8.91,3.12,3,6.05,4.21,9.06,4.21A15.91,15.91,0,0,0,367,51.3l-.15,8.05,6.21,1.8.54-.39-.15-34.65h29.76v8.71a85.24,85.24,0,0,0-11.52-.94c-10.27,0-10.86,5.2-10.86,6.21,0,1.64,1.09,3.68,3.28,6s4,3.44,5.35,3.44a3.4,3.4,0,0,0,3.4-4,37.89,37.89,0,0,0-.35-4.29,22.42,22.42,0,0,1,5.7-.59c1.84,0,3.21,0,5,.2L403,59.35l6.21,1.8.54-.39-.15-34.65h6.79l.55-.74L414.32,20Z"/></svg>